<svg width="128" height="128" viewBox="0 0 128 128" fill="none" xmlns="http://www.w3.org/2000/svg">
<path d="M118.202 55.3216C118.202 68.8463 113.445 81.148 105.493 90.7879C95.4812 102.946 80.4287 110.643 63.53 110.643C47.3414 110.643 32.8569 103.521 22.8455 92.2267C14.2542 82.4429 9 69.4937 9 55.3216C9 24.7473 33.4249 0 63.601 0C93.7772 0 118.202 24.7473 118.202 55.3216Z" fill="#EAEEF9"/>
<path d="M105.564 90.7876C95.5522 102.945 80.4996 110.643 63.601 110.643C47.4124 110.643 32.9279 103.521 22.9165 92.2264C24.6206 90.8595 26.7506 89.6366 29.3777 88.5575L31.3658 87.7661C35.129 86.2554 40.0281 84.385 46.6314 81.5793C48.1224 80.9319 49.3295 79.7808 49.9685 78.2701C50.3235 77.4788 50.5365 76.5435 50.5365 75.6083V63.1628C50.3235 62.875 50.1105 62.6592 49.9685 62.3714C48.9035 60.7888 48.1934 58.9183 47.9804 56.904L46.9154 56.4004C43.7203 57.1918 43.9333 53.7387 43.1523 47.1202C42.7972 44.3865 43.2233 43.811 44.4303 43.3794L45.4243 42.0125C39.3181 27.9843 42.3712 19.2076 48.4065 16.1142C46.4184 11.654 46.2764 10.0713 46.2764 10.0713C46.2764 10.0713 59.1279 12.2295 63.601 11.3662C69.2102 10.2152 77.8725 11.582 81.0677 19.1357C86.3929 21.2939 88.5229 24.675 88.949 28.4159C89.73 34.315 86.3929 40.7895 85.7538 43.3074C85.8248 43.4513 85.8958 43.5232 85.8958 43.5952C86.7479 44.0268 87.0319 44.7462 86.7479 47.1202C85.9668 53.379 86.1799 57.2637 82.9847 56.4004L80.1446 61.4362C80.0026 62.0117 80.0026 62.2276 79.9316 62.6592C79.7896 63.5944 79.8606 65.4648 79.8606 75.7522C79.8606 76.9752 80.2156 78.1262 80.8547 79.2053C81.5647 80.2844 82.5587 81.2196 83.8368 81.7232C83.8368 81.7232 83.9078 81.7232 83.9788 81.7951C91.292 84.8885 96.5462 86.9029 100.38 88.4136C102.368 89.0611 104.073 89.9243 105.564 90.7876Z" fill="white"/>
<path d="M85.8963 43.2355C86.1803 41.6528 85.4702 39.7104 84.9022 38.3436C84.8312 38.1278 84.6892 37.9119 84.6182 37.6242C82.1331 32.5884 76.6659 30.5741 71.4117 30.2863C57.9922 29.5669 56.7852 32.1568 52.596 28.272C53.8741 30.2863 54.0161 33.3797 52.028 37.2645C50.6079 39.9982 47.9098 41.2212 45.5668 42.0125C39.4605 27.9843 42.5136 19.2076 48.5489 16.1142C46.5608 11.654 46.4188 10.0713 46.4188 10.0713C46.4188 10.0713 59.2703 12.2295 63.6724 11.3662C69.2816 10.2152 77.944 11.582 81.1391 19.1357C86.4643 21.2939 88.5233 24.675 89.0204 28.4159C89.8014 34.243 86.5353 40.6457 85.8963 43.2355Z" fill="url(#paint0_linear_15_34943)"/>
<path d="M80.9969 79.0618V81.5077H49.9688V78.3424C50.3238 77.551 50.5368 76.6158 50.5368 75.6806V63.1631C50.3238 62.8753 50.1108 62.6595 49.9688 62.3717V61.6523C50.6078 62.8034 51.4598 63.8825 52.5248 64.7458L62.2522 71.58C64.5243 73.5224 67.7904 73.5943 70.1335 71.7239L79.2218 63.4508C79.5058 63.1631 79.8609 62.8753 80.1449 62.5876C80.0029 63.5228 80.0739 65.3932 80.0739 75.6806C80.0029 76.9036 80.3579 78.1265 80.9969 79.0618Z" fill="url(#paint1_linear_15_34943)"/>
<path d="M91.1359 111.13C90.7216 112.891 90.1001 114.756 89.375 116.309C87.4069 120.142 84.2994 123.146 80.4669 125.114C76.5308 127.082 71.8696 127.911 67.2083 126.875C56.2286 124.596 49.185 113.823 51.4638 102.844C53.7426 91.8639 64.4116 84.7167 75.3914 87.0991C79.3275 87.9278 82.7457 89.8958 85.646 92.589C90.5144 97.4574 92.586 104.501 91.1359 111.13Z" fill="url(#paint2_linear_15_34943)"/>
<path d="M77.7738 105.226H73.1126V100.565C73.1126 99.6324 72.3875 98.8037 71.3517 98.8037C70.4195 98.8037 69.5908 99.5288 69.5908 100.565V105.226H64.9296C63.9974 105.226 63.1687 105.951 63.1687 106.987C63.1687 108.023 63.8938 108.748 64.9296 108.748H69.5908V113.409C69.5908 114.341 70.3159 115.17 71.3517 115.17C72.284 115.17 73.1126 114.445 73.1126 113.409V108.748H77.7738C78.7061 108.748 79.5347 108.023 79.5347 106.987C79.5347 105.951 78.7061 105.226 77.7738 105.226Z" fill="white"/>
<defs>
<linearGradient id="paint0_linear_15_34943" x1="42.2129" y1="26.657" x2="89.1488" y2="26.657" gradientUnits="userSpaceOnUse">
<stop stop-color="#B0BACC"/>
<stop offset="1" stop-color="#969EAE"/>
</linearGradient>
<linearGradient id="paint1_linear_15_34943" x1="65.4922" y1="81.6286" x2="65.4922" y2="70.6903" gradientUnits="userSpaceOnUse">
<stop stop-color="white"/>
<stop offset="1" stop-color="#E2E5EC"/>
</linearGradient>
<linearGradient id="paint2_linear_15_34943" x1="51.0171" y1="106.986" x2="91.5977" y2="106.986" gradientUnits="userSpaceOnUse">
<stop stop-color="#B0BACC"/>
<stop offset="1" stop-color="#969EAE"/>
</linearGradient>
</defs>
</svg>
