<svg width="128" height="128" viewBox="0 0 128 128" fill="none" xmlns="http://www.w3.org/2000/svg">
<path d="M109.11 48.3347C111.222 48.3347 112.934 46.6209 112.934 44.5067C112.934 42.3926 111.222 40.6787 109.11 40.6787C106.997 40.6787 105.285 42.3926 105.285 44.5067C105.285 46.6209 106.997 48.3347 109.11 48.3347Z" fill="#EAEEF9"/>
<path d="M7.51618 69.0359C8.90582 69.0359 10.0324 67.9083 10.0324 66.5175C10.0324 65.1266 8.90582 63.999 7.51618 63.999C6.12653 63.999 5 65.1266 5 66.5175C5 67.9083 6.12653 69.0359 7.51618 69.0359Z" fill="#EAEEF9"/>
<path d="M19.0826 114.312C20.4722 114.312 21.5988 113.185 21.5988 111.794C21.5988 110.403 20.4722 109.275 19.0826 109.275C17.6929 109.275 16.5664 110.403 16.5664 111.794C16.5664 113.185 17.6929 114.312 19.0826 114.312Z" fill="#EAEEF9"/>
<path d="M32.5332 114.312L67.8422 103.248V57.8867L32.5332 68.8654V114.312Z" fill="#B7BFCD"/>
<path opacity="0.4" d="M103.151 114.312L67.8418 103.248V57.8867L103.151 68.8654V114.312Z" fill="#6D7C9A"/>
<g opacity="0.13">
<path d="M32.5332 114.312L67.8422 103.248V57.8867L32.5332 68.8654V114.312Z" fill="url(#paint0_linear_15_39208)"/>
<path d="M103.151 114.312L67.8422 103.248V57.8867L103.151 68.8654V114.312Z" fill="url(#paint1_linear_15_39208)"/>
</g>
<path d="M67.8422 125.461L32.5332 114.397V69.0352L67.8422 80.099V125.461Z" fill="#EDF1F9"/>
<path d="M67.8418 125.461L103.151 114.397V69.0352L67.8418 80.099V125.461Z" fill="#DAE1ED"/>
<path opacity="0.09" d="M59.8422 117.461L32.5332 114.397V69.0352L67.8422 80.099L59.8422 117.461Z" fill="url(#paint2_linear_15_39208)"/>
<path opacity="0.2" d="M75.8418 109.461L103.151 114.397V69.0352L67.8418 80.099L75.8418 109.461Z" fill="url(#paint3_linear_15_39208)"/>
<path d="M67.8418 57.8865L51.2407 45.4609L15.3418 57.546L32.5328 68.8652L67.8418 57.8865Z" fill="#DAE1ED"/>
<path d="M67.8418 57.8865L84.4429 45.4609L120.342 57.546L103.151 68.8652L67.8418 57.8865Z" fill="#DAE1ED"/>
<path d="M32.5328 69.0352L67.8418 80.099L50.2294 91.333L15.3418 79.7586L32.5328 69.0352Z" fill="#EFF4FD"/>
<path d="M103.151 69.0352L67.8418 80.099L85.4542 91.333L120.342 79.7586L103.151 69.0352Z" fill="#EDF1F9"/>
<path d="M77.6933 14.3384C82.6398 27.7629 84.1143 30.7457 84.5982 43.9736C84.4121 46.9931 84.2967 50.2765 82.8731 52.9204C80.972 56.9648 76.322 59.7658 71.9286 59.8112C67.4027 59.892 62.9656 57.1209 60.9685 52.8478C59.5634 50.2545 59.6081 46.7072 61.5355 44.3527C63.6308 42.0945 67.317 41.5315 69.9687 42.9424C72.8856 44.2824 74.6266 47.0686 75.2715 50.0069C75.9163 52.9452 75.633 56.1322 74.8458 59.0298C73.1996 66.0773 71.8361 66.4182 67.7988 78.35" stroke="#ABB5CC" stroke-width="2" stroke-miterlimit="10" stroke-dasharray="4 4"/>
<path d="M83.7127 7.23203C83.7012 9.206 81.8643 10.4147 79.5347 9.7844C77.082 9.36629 75.346 8.93537 75.2343 7.17357C75.2905 5.36678 77.2619 4.65963 79.5692 3.86248C82.3358 2.76316 83.5562 5.30305 83.7127 7.23203Z" fill="#DAE2EB"/>
<path d="M67.8639 13.2689C69.107 14.5485 71.7277 14.9216 73.0048 12.967C74.4051 10.8003 75.6038 9.22502 74.316 7.7782C73.0729 6.49857 71.8632 7.36009 69.0966 8.45941C66.8789 9.59092 66.4081 11.8671 67.8639 13.2689Z" fill="#DAE2EB"/>
<path d="M73.6011 5.1038C74.7323 4.62163 76.0875 4.97537 76.6922 5.88846C76.9497 6.17782 77.2521 6.63436 77.3416 6.96872C78.3045 9.21925 78.0018 11.4504 76.7025 11.9776C75.28 12.7169 73.3201 11.4501 72.5701 9.32173C72.391 8.65301 72.3014 8.31865 72.1671 7.81711C72.0216 6.60185 72.4698 5.58596 73.6011 5.1038C73.7691 5.0588 73.6011 5.1038 73.6011 5.1038Z" fill="#989FB0"/>
<path d="M21.5991 41.3316H19.409V39.1416H17.5318V41.3316H15.3418V43.2714H17.5318V45.4614H19.409V43.2714H21.5991V41.3316Z" fill="url(#paint4_linear_15_39208)"/>
<path d="M26.4096 96.2789H24.2196V94.0889H22.3424V96.2789H20.1523V98.2187H22.3424V100.409H24.2196V98.2187H26.4096V96.2789Z" fill="url(#paint5_linear_15_39208)"/>
<path d="M122.147 96.4023L119.467 95.0494L120.82 92.3699L118.523 91.2103L117.17 93.8898L114.491 92.537L113.293 94.9103L115.972 96.2632L114.619 98.9427L116.916 100.102L118.269 97.4228L120.948 98.7756L122.147 96.4023Z" fill="url(#paint6_linear_15_39208)"/>
<defs>
<linearGradient id="paint0_linear_15_39208" x1="56.6959" y1="61.172" x2="51.8799" y2="81.2218" gradientUnits="userSpaceOnUse">
<stop offset="0.00289017" stop-color="#606673" stop-opacity="0"/>
<stop offset="1" stop-color="#373C47"/>
</linearGradient>
<linearGradient id="paint1_linear_15_39208" x1="56.6959" y1="61.172" x2="51.8799" y2="81.2218" gradientUnits="userSpaceOnUse">
<stop offset="0.00289017" stop-color="#606673" stop-opacity="0"/>
<stop offset="1" stop-color="#373C47"/>
</linearGradient>
<linearGradient id="paint2_linear_15_39208" x1="40.4493" y1="100.08" x2="48.9319" y2="76.1223" gradientUnits="userSpaceOnUse">
<stop offset="0.00289017" stop-color="#6C80AA" stop-opacity="0"/>
<stop offset="1" stop-color="#5D6A86"/>
</linearGradient>
<linearGradient id="paint3_linear_15_39208" x1="86.8976" y1="106.625" x2="87.5647" y2="76.2223" gradientUnits="userSpaceOnUse">
<stop offset="0.00289017" stop-color="#314F91" stop-opacity="0"/>
<stop offset="1" stop-color="#324264"/>
</linearGradient>
<linearGradient id="paint4_linear_15_39208" x1="18.4709" y1="39.3611" x2="18.4709" y2="42.9084" gradientUnits="userSpaceOnUse">
<stop stop-color="#B0BACC"/>
<stop offset="1" stop-color="#969EAE"/>
</linearGradient>
<linearGradient id="paint5_linear_15_39208" x1="23.2815" y1="94.3084" x2="23.2815" y2="97.8557" gradientUnits="userSpaceOnUse">
<stop stop-color="#B0BACC"/>
<stop offset="1" stop-color="#969EAE"/>
</linearGradient>
<linearGradient id="paint6_linear_15_39208" x1="119.537" y1="92.059" x2="117.345" y2="96.3991" gradientUnits="userSpaceOnUse">
<stop stop-color="#B0BACC"/>
<stop offset="1" stop-color="#969EAE"/>
</linearGradient>
</defs>
</svg>
