<svg width="152" height="117" viewBox="0 0 152 117" fill="none" xmlns="http://www.w3.org/2000/svg">
<path d="M72.9822 105.7C100.982 105.7 123.682 82.9996 123.682 54.8996C123.682 26.7996 100.882 4.09961 72.9822 4.09961C44.9822 4.09961 22.2822 26.7996 22.2822 54.8996C22.2822 82.9996 44.9822 105.7 72.9822 105.7Z" fill="#EAEEF9"/>
<path d="M120.382 21.6004C122.647 21.6004 124.482 19.7648 124.482 17.5004C124.482 15.236 122.647 13.4004 120.382 13.4004C118.118 13.4004 116.282 15.236 116.282 17.5004C116.282 19.7648 118.118 21.6004 120.382 21.6004Z" fill="#EAEEF9"/>
<path d="M126.382 5.6C127.928 5.6 129.182 4.3464 129.182 2.8C129.182 1.2536 127.928 0 126.382 0C124.836 0 123.582 1.2536 123.582 2.8C123.582 4.3464 124.836 5.6 126.382 5.6Z" fill="#EAEEF9"/>
<path d="M24.9821 21.5004C26.5285 21.5004 27.7821 20.2468 27.7821 18.7004C27.7821 17.154 26.5285 15.9004 24.9821 15.9004C23.4357 15.9004 22.1821 17.154 22.1821 18.7004C22.1821 20.2468 23.4357 21.5004 24.9821 21.5004Z" fill="#EAEEF9"/>
<path d="M13.2 82.0279C16.0719 82.0279 18.4 79.6998 18.4 76.8279C18.4 73.9561 16.0719 71.6279 13.2 71.6279C10.3281 71.6279 8 73.9561 8 76.8279C8 79.6998 10.3281 82.0279 13.2 82.0279Z" fill="#EAEEF9"/>
<g filter="url(#filter0_d_15_34796)">
<path d="M126.94 77.5291H111.559C110.832 77.5291 110.208 77.0614 110 76.4379C108.493 71.969 105.168 70.8778 97.1133 67.708C96.6457 67.5002 96.5937 66.8766 97.0614 66.6168C99.3997 65.4736 98.984 64.4863 98.984 57.6272C98.8801 57.5232 98.7762 57.3673 98.7242 57.2634C98.2046 56.484 97.8408 55.5486 97.7369 54.6133L97.2173 54.3535C95.6584 54.7172 95.7623 53.0544 95.3466 49.8327C95.1907 48.4816 95.3986 48.2218 95.9702 48.0139L96.4898 47.3384C93.424 40.4793 94.9828 36.1663 97.9967 34.6074C97.0094 32.425 96.9575 31.6455 96.9575 31.6455C96.9575 31.6455 103.349 32.7367 105.531 32.2691C108.337 31.6975 112.598 32.373 114.209 36.0624C116.859 37.1017 117.899 38.8164 118.158 40.5832C118.522 43.4931 116.911 46.6629 116.6 47.91C116.652 47.962 116.652 48.0139 116.703 48.0659C117.119 48.2738 117.275 48.6375 117.119 49.7807C116.755 52.8465 116.807 54.7692 115.249 54.3015L113.846 56.7438C113.794 57.0556 113.742 57.1595 113.742 57.3154C113.69 57.783 113.69 58.6664 113.69 63.7588C113.69 64.3824 113.846 64.954 114.157 65.4216C114.469 65.9932 114.989 66.4089 115.612 66.6688H115.664C119.302 68.1757 121.9 69.163 123.822 69.9424C128.083 71.6572 128.811 72.1249 129.175 74.9829C129.279 76.3859 128.291 77.5291 126.94 77.5291Z" fill="white"/>
</g>
<path d="M116.495 47.8573C116.651 47.0778 116.287 46.1425 115.975 45.467C115.923 45.363 115.871 45.2591 115.819 45.1032C114.624 42.661 111.87 41.6217 109.272 41.5178C102.621 41.154 101.997 42.4531 99.9185 40.5305C100.542 41.5178 100.646 43.0247 99.6067 44.9473C98.9312 46.2984 97.5802 46.87 96.385 47.2857C93.3711 40.4265 94.8781 36.1136 97.8919 34.5547C96.9046 32.3722 96.8527 31.5928 96.8527 31.5928C96.8527 31.5928 103.244 32.684 105.427 32.2163C108.233 31.6447 112.494 32.3203 114.104 36.0097C116.755 37.0489 117.794 38.7637 118.054 40.5305C118.469 43.4404 116.807 46.6102 116.495 47.8573Z" fill="url(#paint0_linear_15_34796)"/>
<path opacity="0.1" d="M125.329 77.528C126.939 75.0338 126.316 72.6955 123.718 69.9414C127.979 71.6562 128.706 72.1239 129.07 74.9818C129.278 76.2809 128.239 77.4761 126.888 77.4761H125.329V77.528Z" fill="#9AA2B2"/>
<path d="M114.052 65.4724V66.6675H98.6191V65.1086C98.9829 64.2772 98.879 64.3292 98.879 57.6259C98.775 57.522 98.6711 57.3661 98.6191 57.2622V56.8984C98.9309 57.47 99.3986 57.9897 99.8663 58.4054L104.699 61.783C105.842 62.7183 107.453 62.7703 108.596 61.8349L113.117 57.7818C113.273 57.6259 113.429 57.522 113.585 57.3661C113.533 57.8338 113.533 58.7171 113.533 63.8096C113.585 64.3811 113.74 64.9527 114.052 65.4724Z" fill="url(#paint1_linear_15_34796)"/>
<g filter="url(#filter1_d_15_34796)">
<path d="M47.4354 65.9413C44.9412 65.8894 44.6814 65.4217 44.6814 65.4217V61.2646C47.3315 59.0822 49.5659 56.536 50.1895 53.2103C51.8523 52.8466 52.8916 51.3396 52.7357 49.6768C52.6837 48.9493 52.2161 48.2738 52.1641 47.4944C52.1641 47.1306 52.1641 46.7669 52.1641 46.4031C52.1641 46.1433 52.1641 45.9355 52.1121 45.6757C52.1121 45.4158 52.0602 45.156 52.0602 44.8962C51.9043 43.6491 51.5925 42.35 50.7611 40.8431C48.6826 36.9458 44.5775 34.3477 39.9527 34.3477C39.0174 34.3477 38.082 34.4516 37.1987 34.6594C35.5358 35.0232 34.0289 35.7507 32.6779 36.7899C32.418 36.9978 32.1582 37.2056 31.8984 37.4135C31.8464 37.4655 31.7945 37.5174 31.6906 37.5694C30.2356 38.9204 29.0924 40.6352 28.4688 42.5579C27.8453 44.4805 27.6894 46.4551 27.9492 48.4297C27.9492 48.4817 27.9492 48.5336 27.9492 48.5856C27.9492 48.6376 27.9492 48.6895 27.9492 48.7415C28.0012 49.1052 28.1051 49.0533 27.8453 49.365C27.7933 49.469 27.6894 49.5729 27.6374 49.7288C27.3256 50.3004 27.0658 51.0798 27.4296 52.0152C28.0531 53.7819 29.3002 53.5221 30.4434 54.5094C30.3915 54.5614 30.2875 54.6133 30.2356 54.6133H30.1836L28.8845 55.029C21.09 57.4713 20.2067 65.7335 28.209 67.2404C27.6374 67.2924 27.1178 67.6042 26.754 67.864C24.2078 69.8386 22.597 72.8525 22.1813 75.8144C22.0254 76.6977 22.7529 77.5291 23.6882 77.5291H36.0555C36.3153 77.5291 36.5751 77.3213 36.679 77.0615C37.8222 72.9044 40.4204 71.4494 45.8246 69.267L48.9424 68.0199C49.462 67.812 50.0336 67.6042 50.6572 67.3443C51.2288 67.1365 51.1768 66.3051 50.5532 66.1492C49.9297 65.9933 49.3061 65.9413 48.6826 65.8894C48.1629 65.9413 47.7472 65.9413 47.4354 65.9413ZM31.5866 60.6411C31.5866 60.1214 31.9504 59.5498 32.7298 58.9263C33.0416 59.342 33.4573 59.8097 33.925 60.2254C34.2887 60.5372 34.6525 60.8489 35.0682 61.1607C35.328 61.3166 35.5878 61.5245 35.8476 61.7323C35.8996 61.7843 35.9515 61.8362 36.0035 61.8362C36.0555 61.8882 36.1594 61.9402 36.2114 61.9921V64.5383C36.1594 64.4864 36.1074 64.4344 36.0555 64.4344C35.7957 64.2265 35.5878 64.0187 35.38 63.8628C35.0162 63.603 34.6525 63.3951 34.2887 63.1873C34.1328 63.0834 34.0289 63.0314 33.925 62.9275C32.7298 62.148 31.6386 61.4205 31.5866 60.6411Z" fill="white"/>
</g>
<path d="M47.4354 65.9416C47.0197 67.4485 46.552 68.3838 46.552 68.3838L33.1455 66.2533L33.925 62.9277C34.0289 63.0316 34.1848 63.0836 34.2887 63.1355C34.6524 63.3434 35.0681 63.6032 35.3799 63.863C35.5878 64.0189 35.8476 64.1748 36.0555 64.4346C36.1074 64.4866 36.1594 64.5385 36.1594 64.5385V61.9923C36.0555 61.9404 36.0035 61.8884 35.9515 61.8365C38.134 62.9277 40.8361 63.4993 44.7333 61.2129C44.6814 61.2129 44.6814 61.2649 44.6294 61.2649V65.4219C44.6294 65.4219 44.9412 65.8896 47.4354 65.9416Z" fill="url(#paint2_linear_15_34796)"/>
<path d="M52.0602 45.6754C49.8258 46.4549 47.4355 46.7667 45.0452 46.5588C41.3038 46.247 37.6664 44.7401 34.8604 42.2459C33.925 44.948 31.5867 46.9745 28.9366 48.1697C28.5728 48.3256 28.2091 48.4815 27.8453 48.5854C27.8453 48.5334 27.8453 48.4815 27.8453 48.4815C27.5855 46.5069 27.7414 44.5323 28.365 42.6096C28.9885 40.687 30.1317 38.9722 31.5867 37.6211C31.6387 37.5692 31.6906 37.5172 31.7946 37.4652C32.0544 37.2574 32.3142 37.0495 32.574 36.8417C33.925 35.8544 35.4839 35.1269 37.0948 34.7112C38.0301 34.5033 38.9135 34.3994 39.8489 34.3994C44.4736 34.3994 48.5787 36.9976 50.6572 40.8948C51.4367 42.4018 51.8004 43.7008 51.9563 44.896C52.0602 45.1558 52.0602 45.4156 52.0602 45.6754Z" fill="url(#paint3_linear_15_34796)"/>
<path d="M32.8857 59.082C33.1975 59.4977 33.5613 59.8615 33.873 60.1733C33.5093 59.8615 33.1456 59.4977 32.8857 59.082Z" fill="#3973F4"/>
<path d="M37.7703 72.2288C36.783 73.476 34.9123 73.5279 33.3534 73.476C35.0163 71.8651 34.0809 66.6168 28.261 67.2404H28.2091C20.2067 65.7334 21.0901 57.4713 28.8326 55.029L30.1317 54.6133C30.2356 54.6652 30.2876 54.7172 30.3396 54.8211C30.9631 56.432 31.7945 57.783 32.6779 58.8743C29.5082 61.5244 33.925 62.3558 36.0555 64.3824C37.9262 65.4736 39.4851 70.0464 37.7703 72.2288Z" fill="url(#paint4_linear_15_34796)"/>
<path d="M32.8339 59.0826C32.7819 59.0307 32.73 58.9787 32.73 58.9268C32.73 58.9268 32.7819 59.0307 32.8339 59.0826Z" fill="#3973F4"/>
<g filter="url(#filter2_d_15_34796)">
<path d="M107.038 79.9191C107.297 81.8418 105.791 83.6085 103.816 83.6085H42.915C40.9404 83.6085 39.4334 81.8418 39.6933 79.9191C40.2649 75.918 41.1482 75.0866 47.072 72.6963L48.527 72.1247C51.2811 71.0334 54.8665 69.6824 59.6991 67.6558C60.7904 67.1881 61.6737 66.3567 62.1414 65.2655C62.4012 64.6939 62.5571 64.0184 62.5571 63.3429V54.2493C62.4012 54.0414 62.2453 53.8855 62.1414 53.6777C61.3619 52.5345 60.8423 51.1835 60.6864 49.7285L59.907 49.3647C57.5686 49.9363 57.7765 47.4421 57.1529 42.6615C56.8931 40.6869 57.2049 40.2712 58.0883 39.9594L58.8157 38.9721C54.3469 28.8392 56.5813 22.4997 60.9982 20.2653C59.6472 17.0436 59.5432 15.9004 59.5432 15.9004C59.5432 15.9004 68.9486 17.4593 72.1703 16.8357C76.2754 16.0043 82.6149 16.9916 84.9533 22.4478C88.8505 24.0067 90.3575 26.4489 90.7212 29.151C91.2928 33.412 88.8505 38.0887 88.3829 39.9074C88.4348 40.0114 88.4348 40.0633 88.4868 40.1153C89.1103 40.4271 89.3182 40.9467 89.1103 42.6615C88.5387 47.1823 88.6946 49.9883 86.3563 49.3647L84.2778 53.0022C84.1738 53.4179 84.1738 53.5738 84.1219 53.8855C84.0179 54.5611 84.0699 55.9121 84.0699 63.3429C84.0699 64.2262 84.3297 65.1096 84.7974 65.7851C85.317 66.5646 86.0445 67.2401 86.9279 67.6039C86.9798 67.6039 86.9798 67.6038 87.0318 67.6558C92.384 69.8902 96.2293 71.3452 99.0353 72.4364C105.427 74.9307 106.414 75.7101 107.038 79.9191Z" fill="white"/>
</g>
<path d="M88.4344 39.9074C88.6423 38.7642 88.1226 37.3612 87.7069 36.3739C87.655 36.218 87.551 36.0621 87.4991 35.8543C85.6804 32.2169 81.6792 30.7619 77.8339 30.554C68.0128 30.0344 67.1295 31.9051 64.0636 29.0991C64.999 30.554 65.1029 32.7885 63.6479 35.5945C62.6087 37.5691 60.6341 38.4525 58.9193 39.024C54.4504 28.8912 56.6848 22.5517 61.1017 20.3173C59.6468 17.0436 59.5428 15.9004 59.5428 15.9004C59.5428 15.9004 68.9482 17.4593 72.1699 16.8357C76.275 16.0043 82.6145 16.9916 84.9529 22.4478C88.8501 24.0067 90.3571 26.4489 90.7208 29.151C91.3444 33.3601 88.9021 38.0367 88.4344 39.9074Z" fill="url(#paint5_linear_15_34796)"/>
<path opacity="0.1" d="M101.53 83.5567C103.92 79.9192 102.985 76.4897 99.1396 72.4365C105.427 74.9308 106.466 75.7102 107.038 79.8673C107.298 81.7899 105.791 83.5567 103.816 83.5567H101.53Z" fill="#9AA2B2"/>
<path d="M84.8493 65.7853V67.552H62.1934V65.2656C62.4532 64.6941 62.6091 64.0185 62.6091 63.343V54.2494C62.4532 54.0416 62.2973 53.8857 62.1934 53.6778V53.1582C62.661 53.9896 63.2846 54.7691 64.064 55.3926L71.183 60.3811C72.8458 61.7841 75.2361 61.8361 76.9509 60.485L83.6022 54.5093C83.8101 54.3014 84.0699 54.0935 84.2778 53.8857C84.1738 54.5612 84.2258 55.9123 84.2258 63.343C84.1738 64.2264 84.4336 65.0578 84.8493 65.7853Z" fill="url(#paint6_linear_15_34796)"/>
<path d="M90.9795 93.0959C90.657 94.4665 90.1733 95.9178 89.6089 97.1273C88.0769 100.111 85.6581 102.449 82.6748 103.981C79.611 105.513 75.9827 106.158 72.3544 105.351C63.8078 103.578 58.3251 95.1922 60.0989 86.6456C61.8727 78.099 70.1774 72.5356 78.724 74.3901C81.7879 75.0351 84.4486 76.5671 86.7062 78.6634C90.4958 82.4529 92.1083 87.9356 90.9795 93.0959Z" fill="url(#paint7_linear_15_34796)"/>
<path d="M80.5776 88.499H76.9493V84.8707C76.9493 84.145 76.3849 83.5 75.5786 83.5C74.853 83.5 74.2079 84.0644 74.2079 84.8707V88.499H70.5797C69.854 88.499 69.209 89.0634 69.209 89.8696C69.209 90.6759 69.7734 91.2403 70.5797 91.2403H74.2079V94.8686C74.2079 95.5942 74.7723 96.2393 75.5786 96.2393C76.3043 96.2393 76.9493 95.6749 76.9493 94.8686V91.2403H80.5776C81.3032 91.2403 81.9482 90.6759 81.9482 89.8696C81.9482 89.0634 81.3032 88.499 80.5776 88.499Z" fill="white"/>
<defs>
<filter id="filter0_d_15_34796" x="72.8242" y="20.6455" width="78.3579" height="89.8838" filterUnits="userSpaceOnUse" color-interpolation-filters="sRGB">
<feFlood flood-opacity="0" result="BackgroundImageFix"/>
<feColorMatrix in="SourceAlpha" type="matrix" values="0 0 0 0 0 0 0 0 0 0 0 0 0 0 0 0 0 0 127 0" result="hardAlpha"/>
<feOffset dy="11"/>
<feGaussianBlur stdDeviation="11"/>
<feColorMatrix type="matrix" values="0 0 0 0 0.397708 0 0 0 0 0.47749 0 0 0 0 0.575 0 0 0 0.27 0"/>
<feBlend mode="normal" in2="BackgroundImageFix" result="effect1_dropShadow_15_34796"/>
<feBlend mode="normal" in="SourceGraphic" in2="effect1_dropShadow_15_34796" result="shape"/>
</filter>
<filter id="filter1_d_15_34796" x="0.160156" y="23.3477" width="74.5911" height="87.1816" filterUnits="userSpaceOnUse" color-interpolation-filters="sRGB">
<feFlood flood-opacity="0" result="BackgroundImageFix"/>
<feColorMatrix in="SourceAlpha" type="matrix" values="0 0 0 0 0 0 0 0 0 0 0 0 0 0 0 0 0 0 127 0" result="hardAlpha"/>
<feOffset dy="11"/>
<feGaussianBlur stdDeviation="11"/>
<feColorMatrix type="matrix" values="0 0 0 0 0.397708 0 0 0 0 0.47749 0 0 0 0 0.575 0 0 0 0.27 0"/>
<feBlend mode="normal" in2="BackgroundImageFix" result="effect1_dropShadow_15_34796"/>
<feBlend mode="normal" in="SourceGraphic" in2="effect1_dropShadow_15_34796" result="shape"/>
</filter>
<filter id="filter2_d_15_34796" x="17.6641" y="4.90039" width="111.403" height="111.708" filterUnits="userSpaceOnUse" color-interpolation-filters="sRGB">
<feFlood flood-opacity="0" result="BackgroundImageFix"/>
<feColorMatrix in="SourceAlpha" type="matrix" values="0 0 0 0 0 0 0 0 0 0 0 0 0 0 0 0 0 0 127 0" result="hardAlpha"/>
<feOffset dy="11"/>
<feGaussianBlur stdDeviation="11"/>
<feColorMatrix type="matrix" values="0 0 0 0 0.397708 0 0 0 0 0.47749 0 0 0 0 0.575 0 0 0 0.27 0"/>
<feBlend mode="normal" in2="BackgroundImageFix" result="effect1_dropShadow_15_34796"/>
<feBlend mode="normal" in="SourceGraphic" in2="effect1_dropShadow_15_34796" result="shape"/>
</filter>
<linearGradient id="paint0_linear_15_34796" x1="94.7315" y1="39.7268" x2="118.124" y2="39.7268" gradientUnits="userSpaceOnUse">
<stop stop-color="#B0BACC"/>
<stop offset="1" stop-color="#969EAE"/>
</linearGradient>
<linearGradient id="paint1_linear_15_34796" x1="106.34" y1="66.727" x2="106.34" y2="61.3452" gradientUnits="userSpaceOnUse">
<stop stop-color="white"/>
<stop offset="1" stop-color="#E2E5EC"/>
</linearGradient>
<linearGradient id="paint2_linear_15_34796" x1="40.2948" y1="68.4275" x2="40.2948" y2="64.477" gradientUnits="userSpaceOnUse">
<stop stop-color="white"/>
<stop offset="1" stop-color="#E2E5EC"/>
</linearGradient>
<linearGradient id="paint3_linear_15_34796" x1="27.714" y1="41.4939" x2="52.0647" y2="41.4939" gradientUnits="userSpaceOnUse">
<stop stop-color="#B0BACC"/>
<stop offset="1" stop-color="#969EAE"/>
</linearGradient>
<linearGradient id="paint4_linear_15_34796" x1="22.5957" y1="64.053" x2="38.5127" y2="64.053" gradientUnits="userSpaceOnUse">
<stop stop-color="#B0BACC"/>
<stop offset="1" stop-color="#969EAE"/>
</linearGradient>
<linearGradient id="paint5_linear_15_34796" x1="56.4647" y1="27.9065" x2="90.8283" y2="27.9065" gradientUnits="userSpaceOnUse">
<stop stop-color="#B0BACC"/>
<stop offset="1" stop-color="#969EAE"/>
</linearGradient>
<linearGradient id="paint6_linear_15_34796" x1="73.5282" y1="67.6396" x2="73.5282" y2="59.7102" gradientUnits="userSpaceOnUse">
<stop stop-color="white"/>
<stop offset="1" stop-color="#E2E5EC"/>
</linearGradient>
<linearGradient id="paint7_linear_15_34796" x1="59.7512" y1="89.8703" x2="91.339" y2="89.8703" gradientUnits="userSpaceOnUse">
<stop stop-color="#B0BACC"/>
<stop offset="1" stop-color="#969EAE"/>
</linearGradient>
</defs>
</svg>
